<svg xmlns="http://www.w3.org/2000/svg" height="512pt" version="1.1" viewBox="0 -123 512 512" width="512pt">
<g id="surface1">
<path d="M 398.535156 246 L 398.265625 246 C 392.742188 246 388.265625 250.476562 388.265625 256 C 388.265625 261.523438 392.742188 266 398.265625 266 L 398.535156 266 C 404.058594 266 408.535156 261.523438 408.535156 256 C 408.535156 250.476562 404.058594 246 398.535156 246 Z M 398.535156 246 " style=" stroke:none;fill-rule:nonzero;fill:rgb(0%,0%,0%);fill-opacity:1;" />
<path d="M 358.300781 246 L 108.398438 246 C 86.785156 246 69.199219 228.414062 69.199219 206.800781 L 69.199219 184.25 C 69.199219 178.726562 64.722656 174.25 59.199219 174.25 L 34.601562 174.25 C 26.550781 174.25 20 167.699219 20 159.648438 L 20 106.351562 C 20 98.300781 26.550781 91.75 34.601562 91.75 L 59.199219 91.75 C 64.722656 91.75 69.199219 87.273438 69.199219 81.75 L 69.199219 59.199219 C 69.199219 37.585938 86.785156 20 108.398438 20 L 133.933594 20 C 139.457031 20 143.933594 15.523438 143.933594 10 C 143.933594 4.476562 139.457031 0 133.933594 0 L 108.398438 0 C 75.757812 0 49.199219 26.558594 49.199219 59.199219 L 49.199219 71.75 L 34.601562 71.75 C 15.523438 71.75 0 87.269531 0 106.351562 L 0 159.648438 C 0 178.726562 15.523438 194.25 34.601562 194.25 L 49.199219 194.25 L 49.199219 206.800781 C 49.199219 239.441406 75.757812 266 108.402344 266 L 358.300781 266 C 363.824219 266 368.300781 261.523438 368.300781 256 C 368.300781 250.476562 363.824219 246 358.300781 246 Z M 358.300781 246 " style=" stroke:none;fill-rule:nonzero;fill:rgb(0%,0%,0%);fill-opacity:1;" />
<path d="M 452.800781 0 L 202.898438 0 C 197.378906 0 192.898438 4.476562 192.898438 10 C 192.898438 15.523438 197.378906 20 202.898438 20 L 452.800781 20 C 474.414062 20 492 37.585938 492 59.199219 L 492 206.800781 C 492 228.414062 474.414062 246 452.800781 246 L 427.265625 246 C 421.742188 246 417.265625 250.476562 417.265625 256 C 417.265625 261.523438 421.742188 266 427.265625 266 L 452.800781 266 C 485.441406 266 512 239.441406 512 206.800781 L 512 59.199219 C 512 26.558594 485.441406 0 452.800781 0 Z M 452.800781 0 " style=" stroke:none;fill-rule:nonzero;fill:rgb(0%,0%,0%);fill-opacity:1;" />
<path d="M 162.664062 20 L 162.933594 20 C 168.457031 20 172.933594 15.523438 172.933594 10 C 172.933594 4.476562 168.457031 0 162.933594 0 L 162.664062 0 C 157.140625 0 152.664062 4.476562 152.664062 10 C 152.664062 15.523438 157.140625 20 162.664062 20 Z M 162.664062 20 " style=" stroke:none;fill-rule:nonzero;fill:rgb(0%,0%,0%);fill-opacity:1;" />
<path d="M 367.300781 32 L 296.601562 32 C 291.078125 32 286.601562 36.476562 286.601562 42 L 286.601562 224 C 286.601562 229.523438 291.078125 234 296.601562 234 L 367.300781 234 C 372.820312 234 377.300781 229.523438 377.300781 224 L 377.300781 42 C 377.300781 36.476562 372.824219 32 367.300781 32 Z M 357.300781 214 L 306.601562 214 L 306.601562 52 L 357.300781 52 Z M 357.300781 214 " style=" stroke:none;fill-rule:nonzero;fill:rgb(0%,0%,0%);fill-opacity:1;" />
<path d="M 399.300781 234 L 452.800781 234 C 467.796875 234 480 221.796875 480 206.800781 L 480 59.199219 C 480 44.203125 467.796875 32 452.800781 32 L 399.300781 32 C 393.777344 32 389.300781 36.476562 389.300781 42 L 389.300781 224 C 389.300781 229.523438 393.777344 234 399.300781 234 Z M 409.300781 52 L 452.800781 52 C 456.703125 52 460 55.296875 460 59.199219 L 460 206.800781 C 460 210.703125 456.703125 214 452.800781 214 L 409.300781 214 Z M 409.300781 52 " style=" stroke:none;fill-rule:nonzero;fill:rgb(0%,0%,0%);fill-opacity:1;" />
</g>
</svg>