<?xml version="1.0" encoding="iso-8859-1"?>
<!-- Generator: Adobe Illustrator 21.0.0, SVG Export Plug-In . SVG Version: 6.00 Build 0)  -->
<svg xmlns="http://www.w3.org/2000/svg" xmlns:xlink="http://www.w3.org/1999/xlink" version="1.1" id="Capa_1" x="0px" y="0px" viewBox="0 0 512.002 512.002" style="enable-background:new 0 0 512.002 512.002;" xml:space="preserve" width="512" height="512">
<g>
	<g>
		<path d="M446.001,0h-280c-5.523,0-10,4.477-10,10s4.477,10,10,10h280c5.514,0,10,4.486,10,10v452.002c0,5.514-4.486,10-10,10h-380    c-5.514,0-10-4.486-10-10V30c0-5.514,4.486-10,10-10h20c5.523,0,10-4.477,10-10s-4.477-10-10-10h-20c-16.542,0-30,13.458-30,30    v452.002c0,16.542,13.458,30,30,30h380c16.542,0,30-13.458,30-30V30C476.001,13.458,462.543,0,446.001,0z"/>
		<path d="M436.001,50c0-5.523-4.477-10-10-10h-340c-5.523,0-10,4.477-10,10v80.002c0,5.523,4.477,10,10,10h340    c5.523,0,10-4.477,10-10V50z M416.001,120.002h-320V60h320V120.002z"/>
		<path d="M381.001,472.001h45c5.523,0,10-4.477,10-10V170.003c0-5.523-4.477-10-10-10h-340c-5.523,0-10,4.477-10,10v291.998    c0,5.523,4.477,10,10,10h215c5.523,0,10-4.477,10-10s-4.477-10-10-10h-35V326.002h150v125.999h-35c-5.523,0-10,4.477-10,10    S375.478,472.001,381.001,472.001z M246.001,180.003v125.999h-150V180.003H246.001z M246.001,452.001h-150V326.002h150V452.001z     M266.001,306.002V180.003h150v125.999H266.001z"/>
		<path d="M141.001,253.003h20v20c0,5.523,4.477,10,10,10s10-4.477,10-10v-20h20c5.523,0,10-4.477,10-10s-4.477-10-10-10h-20v-20    c0-5.523-4.477-10-10-10s-10,4.477-10,10v20h-20c-5.523,0-10,4.477-10,10S135.478,253.003,141.001,253.003z"/>
		<path d="M142.717,417.287c1.953,1.953,4.512,2.929,7.071,2.929s5.119-0.976,7.071-2.929l42.426-42.426    c3.905-3.905,3.905-10.237,0-14.143s-10.237-3.905-14.143,0l-42.426,42.426C138.811,407.049,138.811,413.381,142.717,417.287z"/>
		<path d="M371.001,233.003h-60c-5.523,0-10,4.477-10,10s4.477,10,10,10h60c5.523,0,10-4.477,10-10S376.524,233.003,371.001,233.003    z"/>
		<path d="M362.214,420.215c2.559,0,5.119-0.976,7.071-2.929c3.905-3.905,3.905-10.237,0-14.143l-14.142-14.142l14.142-14.142    c3.905-3.905,3.905-10.237,0-14.143s-10.237-3.905-14.143,0l-14.142,14.142l-14.142-14.142c-3.905-3.905-10.237-3.905-14.143,0    s-3.905,10.237,0,14.143l14.142,14.142l-14.142,14.142c-3.905,3.905-3.905,10.237,0,14.143c1.953,1.953,4.512,2.929,7.071,2.929    s5.119-0.976,7.071-2.929l14.142-14.142l14.142,14.142C357.095,419.239,359.655,420.215,362.214,420.215z"/>
		<path d="M126.005,20c5.523,0,10-4.477,10-10s-4.477-10-10-10h-0.007c-5.523,0-9.996,4.477-9.996,10S120.482,20,126.005,20z"/>
		<path d="M340.997,452.001c-5.523,0-9.996,4.477-9.996,10s4.48,10,10.003,10s10-4.477,10-10s-4.477-10-10-10H340.997z"/>
	</g>
</g>















</svg>
