<?xml version="1.0" encoding="iso-8859-1"?>
<!-- Generator: Adobe Illustrator 21.0.0, SVG Export Plug-In . SVG Version: 6.00 Build 0)  -->
<svg xmlns="http://www.w3.org/2000/svg" xmlns:xlink="http://www.w3.org/1999/xlink" version="1.1" id="Capa_1" x="0px" y="0px" viewBox="0 0 512.002 512.002" style="enable-background:new 0 0 512.002 512.002;" xml:space="preserve" width="512" height="512">
<g>
	<g>
		<path d="M459.1,158.631l-10.089-41.412c-4.483-18.405-16.25-29.394-31.477-29.394h-67.65V50c0-27.57-22.43-50-50-50h-87.766    c-27.57,0-50,22.43-50,50v104.949c0,5.522,4.478,10,10,10h42.311c-14.527,15.493-25.974,33.495-33.899,52.946    c-2.807-0.193-5.618-0.294-8.411-0.294c-67.427,0-122.282,54.855-122.282,122.282c0,33.301,13.386,63.53,35.054,85.605    c0.236,0.297,0.487,0.587,0.762,0.862c5.816,5.816,5.816,15.28,0,21.098c-2.817,2.817-6.563,4.369-10.548,4.369    c-3.445,0-6.708-1.164-9.351-3.299C37.539,420.888,20,382.399,20,339.884c0-42.186,17.757-82.847,48.718-111.556    c1.438-1.334,2.451-3.061,2.916-4.966l10.791-44.286c0.964-3.957,3.951-13.247,10.859-14.058    c5.484-0.644,9.409-5.612,8.766-11.098c-0.645-5.485-5.618-9.411-11.098-8.766c-13.639,1.601-23.83,12.239-27.959,29.187    l-10.091,41.413C19.245,248.104,0,293.167,0,339.884c0,46.981,18.928,89.618,49.55,120.707c0.265,0.345,0.546,0.683,0.862,0.999    c0.642,0.641,1.309,1.246,1.991,1.831c31.001,30.051,73.232,48.581,119.715,48.581c51.076,0,98.61-22.156,131.428-60.997    c11.719,2.529,23.874,3.873,36.338,3.873c94.906,0,172.118-77.212,172.118-172.118C512.002,236.043,492.757,190.979,459.1,158.631    z M182.118,50c0-16.542,13.458-30,30-30h87.766c16.542,0,30,13.458,30,30v37.825h-67.65c-15.224,0-26.989,10.988-31.475,29.393    l-6.758,27.731h-41.883V50z M172.118,237.602c0.574,0,1.15,0.019,1.725,0.029c-3.986,14.604-6.078,29.776-6.078,45.129    c0,46.981,18.928,89.618,49.55,120.707c0.265,0.345,0.546,0.683,0.862,0.999c0.642,0.641,1.309,1.246,1.991,1.831    c4.971,4.819,10.23,9.34,15.75,13.537c-18.058,14.472-40.31,22.333-63.8,22.333c-56.398,0-102.282-45.884-102.282-102.283    C69.836,283.485,115.72,237.602,172.118,237.602z M172.118,492.002c-29.993,0-57.984-8.729-81.573-23.775    c3.381-1.67,6.505-3.893,9.249-6.637c4.824-4.825,7.93-10.723,9.335-16.932c18.409,11.109,39.965,17.509,62.989,17.509    c30.208,0,58.704-10.872,81.086-30.761c9.15,5.356,18.834,9.89,28.954,13.503C253.518,474.998,214.177,492.002,172.118,492.002z     M339.884,434.878c-29.993,0-57.984-8.729-81.573-23.775c3.381-1.67,6.505-3.893,9.249-6.637    c4.824-4.825,7.93-10.723,9.336-16.932c13.897,8.386,29.589,14.082,46.351,16.372c0.078,0.014,0.156,0.021,0.234,0.033    c5.367,0.723,10.841,1.104,16.403,1.104c17.411,0,34.237-3.589,50.012-10.668c5.039-2.261,7.291-8.178,5.029-13.217    c-2.26-5.039-8.178-7.291-13.217-5.029c-13.183,5.915-27.254,8.914-41.824,8.914c-0.551,0-1.1-0.012-1.649-0.021    c3.98-14.661,6.001-29.79,6.001-45.137c0-46.716-19.245-91.78-52.901-124.129l-4.911-20.159    c15.566-9.583,33.878-15.118,53.46-15.118c56.398,0,102.282,45.884,102.282,102.282c0,14.572-3,28.646-8.917,41.83    c-2.262,5.039-0.01,10.957,5.028,13.218c5.041,2.261,10.957,0.011,13.218-5.028c7.081-15.776,10.671-32.605,10.671-50.02    c0-67.427-54.855-122.282-122.282-122.282c-25.908,0-49.954,8.105-69.751,21.904c-0.628,0.353-1.213,0.765-1.741,1.235    c-20.013,14.472-35.487,34.844-43.853,58.545c-0.162,0.384-0.302,0.774-0.413,1.169c-4.227,12.376-6.524,25.639-6.524,39.429    c0,33.301,13.386,63.529,35.052,85.603c0.237,0.298,0.488,0.588,0.763,0.864c5.816,5.816,5.816,15.28,0,21.098    c-2.817,2.817-6.563,4.369-10.548,4.369c-3.445,0-6.708-1.164-9.351-3.299c-28.214-27.63-45.753-66.12-45.753-108.634    c0-42.186,17.757-82.846,48.717-111.557c1.438-1.333,2.451-3.06,2.916-4.965l10.792-44.286c1.285-5.275,4.56-14.127,12.043-14.127    h155.301c7.486,0,10.76,8.851,12.045,14.127l10.789,44.286c0.464,1.905,1.479,3.632,2.916,4.965    c30.961,28.71,48.718,69.371,48.718,111.557C492.002,366.638,423.762,434.878,339.884,434.878z M269.103,208.995l3.5,14.367    c0.464,1.905,1.479,3.632,2.916,4.965c30.96,28.711,48.717,69.371,48.717,111.557c0,14.592-2.063,28.956-6.126,42.818    c-9.957-2.167-19.376-5.788-28.025-10.63c2.849-10.453,4.315-21.243,4.315-32.188c0-38.55-17.983-74.417-48.486-97.498    C251.37,229.739,259.303,218.402,269.103,208.995z M239.53,262.97c22.044,19.298,34.87,47.149,34.87,76.914    c0,6.67-0.658,13.266-1.924,19.735c-21.365-18.76-34.875-46.26-34.875-76.859C237.602,275.99,238.269,269.375,239.53,262.97z"/>
		<path d="M132.122,164.949c5.522,0,10-4.478,10-10s-4.478-10-10-10h-0.007c-5.522,0-9.996,4.478-9.996,10    S126.6,164.949,132.122,164.949z"/>
		<path d="M412.208,355.084l-0.005,0.005c-3.905,3.905-3.902,10.234,0.003,14.14c1.952,1.952,4.511,2.928,7.069,2.928    c2.561,0,5.122-0.977,7.075-2.93c3.905-3.905,3.905-10.237,0-14.143C422.444,351.18,416.114,351.18,412.208,355.084z"/>
	</g>
</g>















</svg>
